Coordinates
version=1
nRows=29
nColumns=24
inDegrees=yes

Units are S.I. units (second, meters, Newtons, ...)
Angles are in degrees.

endheader
time	pelvis_tilt	pelvis_list	pelvis_rotation	pelvis_tx	pelvis_ty	pelvis_tz	hip_flexion_r	hip_adduction_r	hip_rotation_r	knee_angle_r	ankle_angle_r	subtalar_angle_r	mtp_angle_r	hip_flexion_l	hip_adduction_l	hip_rotation_l	knee_angle_l	ankle_angle_l	subtalar_angle_l	mtp_angle_l	lumbar_extension	lumbar_bending	lumbar_rotation
      4.77000000	      4.43637401	      3.98027757	     -3.90604629	     -1.74461402	      0.74812071	      0.26415286	     18.73710242	     -3.63348053	      3.60937642	    -63.34382176	     14.39634735	     -0.34630078	      0.00000000	     -2.58701441	     11.43598432	     -4.89432938	     -8.77708215	     10.68888590	    -19.96845614	      0.00000000	    -26.69776318	     -5.12025776	     -4.32535424
      4.78000000	      4.22127462	      3.53022509	     -3.14219894	     -1.73260391	      0.74936768	      0.26420324	     19.72988526	     -2.99091989	      3.30883102	    -60.77394107	     14.37442443	     -3.25861544	      0.00000000	     -3.87965887	     10.93033677	     -4.42363347	     -8.00281044	     10.77514697	    -19.60190404	      0.00000000	    -26.54704776	     -4.38118445	     -5.01448143
      4.79000000	      4.01841853	      3.17243530	     -2.36250299	     -1.72069790	      0.75027412	      0.26430538	     20.53117209	     -2.49419703	      3.04632905	    -57.75988852	     14.12714663	     -6.07862815	      0.00000000	     -5.05947860	     10.49328163	     -4.01453923	     -7.39890049	     10.89985049	    -19.25106380	      0.00000000	    -26.42732905	     -3.76296272	     -5.72434067
      4.80000000	      3.83860238	      2.92697884	     -1.56800553	     -1.70887018	      0.75083561	      0.26445832	     21.11874831	     -2.16864930	      2.82372282	    -54.30681979	     13.67526259	     -8.83184721	      0.00000000	     -6.13976440	     10.14678062	     -3.66802267	     -6.97690114	     11.04868232	    -18.90842961	      0.00000000	    -26.35339794	     -3.28504651	     -6.42864334
      4.81000000	      3.68176677	      2.81002842	     -0.74462690	     -1.69706454	      0.75105318	      0.26463892	     21.47490881	     -2.03815099	      2.62577146	    -50.42054921	     13.05669047	    -11.43122520	      0.00000000	     -7.13317607	      9.90913051	     -3.35183316	     -6.73749258	     11.25848633	    -18.57230836	      0.00000000	    -26.31858233	     -2.96112958	     -7.16825192
      4.82000000	      3.53341058	      2.84329429	      0.11559447	     -1.68525300	      0.75091192	      0.26483640	     21.61526945	     -2.12743514	      2.44014398	    -46.12692302	     12.30305566	    -13.82593615	      0.00000000	     -8.03364782	      9.79846601	     -3.08105977	     -6.67852646	     11.51347939	    -18.22017631	      0.00000000	    -26.30818925	     -2.80343136	     -7.97149600
      4.83000000	      3.39526313	      3.01857556	      1.00420466	     -1.67339032	      0.75042204	      0.26506356	     21.53390073	     -2.41601105	      2.27593803	    -41.45150705	     11.50207458	    -15.90188767	      0.00000000	     -8.87632516	      9.80658024	     -2.79422293	     -6.76553998	     11.81311372	    -17.87356442	      0.00000000	    -26.32481027	     -2.81376616	     -8.81646457
      4.84000000	      3.26918315	      3.32800232	      1.91624671	     -1.66143635	      0.74958428	      0.26528854	     21.24359076	     -2.90053478	      2.10081421	    -36.44910019	     10.81872903	    -17.43856157	      0.00000000	     -9.70749077	      9.92913962	     -2.42502484	     -6.93961443	     12.18151304	    -17.56892994	      0.00000000	    -26.36647907	     -2.96585010	     -9.67982729
      4.85000000	      3.06633097	      3.81980686	      2.83625995	     -1.64941109	      0.74831198	      0.26554478	     20.89109431	     -3.61653292	      1.94080449	    -31.22931552	     10.05430991	    -18.50844727	      0.00000000	    -10.40933344	     10.21184931	     -2.06515468	     -7.25183082	     12.49020215	    -17.26540461	      0.00000000	    -26.34131509	     -3.34095575	    -10.60040735
      4.86000000	      2.87300366	      4.41726264	      3.74872173	     -1.63723267	      0.74671495	      0.26578943	     20.39966644	     -4.48023641	      1.74275474	    -25.86456291	      9.53901879	    -18.72980986	      0.00000000	    -11.16186261	     10.58000492	     -1.60082202	     -7.56871111	     12.81756387	    -17.02969653	      0.00000000	    -26.34010615	     -3.82315820	    -11.51425953
      4.87000000	      2.64109349	      5.10055028	      4.63207283	     -1.62488841	      0.74475934	      0.26605337	     19.87225138	     -5.44967831	      1.51403516	    -20.48102635	      9.18967166	    -18.11344717	      0.00000000	    -11.91010113	     11.01364517	     -1.02901676	     -7.90617123	     13.16796235	    -16.83263182	      0.00000000	    -26.29952786	     -4.41652007	    -12.39950570
      4.88000000	      2.42030663	      5.85200519	      5.46196851	     -1.61235687	      0.74253205	      0.26637707	     19.27569284	     -6.46032878	      1.41818061	    -15.17612848	      8.81019901	    -17.03082368	      0.00000000	    -12.71806825	     11.48319185	     -0.39989434	     -8.24520473	     13.46656135	    -16.60760273	      0.00000000	    -26.27801374	     -5.10941744	    -13.23989505
      4.89000000	      2.26393017	      6.63494546	      6.19264726	     -1.59960496	      0.74009967	      0.26671984	     18.69505890	     -7.50186069	      1.05094023	    -10.26546795	      8.93801249	    -14.61853300	      0.00000000	    -13.67052933	     11.95931244	      0.30674224	     -8.52307000	     13.63268886	    -16.57098660	      0.00000000	    -26.31792666	     -5.83048695	    -14.01936760
      4.90000000	      2.07195632	      7.37729584	      6.87748503	     -1.58662367	      0.73743381	      0.26708677	     18.24347279	     -8.45843480	      0.60435511	     -5.88160843	      9.18520363	    -11.66074135	      0.00000000	    -14.63948053	     12.36202876	      1.19672369	     -8.77732689	     13.87995958	    -16.45613412	      0.00000000	    -26.28486046	     -6.52505330	    -14.70884728
      4.91000000	      1.97143556	      8.03247614	      7.46882665	     -1.57344511	      0.73474672	      0.26752416	     17.79675906	     -9.24034217	      0.20454182	     -2.10618492	      9.51662706	     -8.52601514	      0.00000000	    -15.68967382	     12.62993505	      2.09240201	     -9.08596262	     14.09743429	    -16.30836079	      0.00000000	    -26.32637176	     -7.12195770	    -15.27374517
      4.92000000	      1.96048745	      8.53736702	      7.96739527	     -1.56007688	      0.73211410	      0.26804806	     17.35556087	     -9.78033169	      0.00530046	      0.98953454	      9.83685171	     -5.69162437	      0.00000000	    -16.78482140	     12.70504723	      3.02485132	     -9.47223806	     14.30941872	    -16.14848798	      0.00000000	    -26.42332192	     -7.55194831	    -15.70053574
      4.93000000	      2.05772152	      8.86643916	      8.37513606	     -1.54652880	      0.72962245	      0.26865403	     16.86231641	    -10.06676855	      0.18097015	      3.40542312	      9.99939370	     -3.67334370	      0.00000000	    -17.89066093	     12.57029945	      3.95991130	    -10.00355926	     14.50042038	    -15.98570964	      0.00000000	    -26.58312988	     -7.77582383	    -15.98272044
      4.94000000	      2.25833360	      9.00438653	      8.70462813	     -1.53282271	      0.72734462	      0.26933704	     16.35404111	    -10.10381354	      0.71957991	      5.04141368	      9.89589178	     -2.82312601	      0.00000000	    -18.94765120	     12.21558493	      4.77634341	    -10.74568776	     14.66124839	    -15.70825272	      0.00000000	    -26.80168664	     -7.77032701	    -16.16363293
      4.95000000	      2.60858078	      8.89764694	      8.92831443	     -1.51896289	      0.72542172	      0.27013185	     15.81884686	     -9.80319645	      1.17614552	      5.85761398	      9.54432452	     -2.54093851	      0.00000000	    -19.96417817	     11.61694542	      5.52204569	    -11.73343112	     14.66751402	    -15.55394416	      0.00000000	    -27.11170293	     -7.48419152	    -16.12584346
      4.96000000	      3.05995888	      8.62368724	      9.03398105	     -1.50495086	      0.72380806	      0.27102224	     15.13592838	     -9.32431033	      2.70872754	      6.14723674	      8.13967476	     -4.63072495	      0.00000000	    -20.89765240	     10.90022533	      6.23887113	    -12.96871830	     14.35814581	    -15.72364675	      0.00000000	    -27.46487560	     -7.00692857	    -15.95116947
      4.97000000	      3.61501327	      8.11316279	      9.07203041	     -1.49082891	      0.72266128	      0.27202119	     14.44627385	     -8.53592105	      4.17968779	      5.75204724	      6.03208505	     -7.52647513	      0.00000000	    -21.59988379	      9.96643188	      6.53769396	    -14.66612842	     13.92019282	    -15.61731866	      0.00000000	    -27.86968407	     -6.27264519	    -15.61429605
      4.98000000	      4.25937241	      7.38422243	      9.02853938	     -1.47665548	      0.72201018	      0.27312447	     13.75804489	     -7.45764227	      5.75870673	      4.78243676	      3.20208624	    -11.27032744	      0.00000000	    -22.04985802	      8.86873483	      6.50561566	    -16.82387685	     13.14043751	    -15.58591393	      0.00000000	    -28.33201544	     -5.30902249	    -15.11621255
      4.99000000	      4.93285580	      6.41807284	      8.91905673	     -1.46246662	      0.72184739	      0.27431166	     13.22014187	     -6.04592427	      7.11425883	      3.19778268	      0.09116368	    -15.20058722	      0.00000000	    -22.16037987	      7.60061938	      6.15282498	    -19.46193734	     11.92787045	    -15.63670375	      0.00000000	    -28.78142985	     -4.11499533	    -14.43998572
      5.00000000	      5.64136128	      5.26451624	      8.75572873	     -1.44835074	      0.72220583	      0.27556458	     12.86174099	     -4.33548146	      7.87341056	      1.04366646	     -2.59567305	    -18.37821976	      0.00000000	    -21.91594554	      6.19085828	      5.46559831	    -22.59675514	     10.11398960	    -15.82628812	      0.00000000	    -29.26377243	     -2.75147404	    -13.62410322
      5.01000000	      6.20724869	      4.01324102	      8.49088886	     -1.43436815	      0.72283463	      0.27689933	     12.94786887	     -2.44653778	      7.93302860	     -1.71105400	     -4.10754496	    -20.15557226	      0.00000000	    -21.15301473	      4.76919766	      4.51582930	    -26.18350898	      7.53065900	    -16.35014240	      0.00000000	    -29.59246613	     -1.37684536	    -12.65256694
      5.02000000	      6.83201852	      2.71157840	      8.15937718	     -1.42049537	      0.72385485	      0.27828516	     13.05554799	     -0.46556756	      7.61306455	     -4.67579100	     -4.41473449	    -20.88802481	      0.00000000	    -20.12811156	      3.26174387	      3.26330636	    -30.13572836	      4.43456496	    -16.75171992	      0.00000000	    -30.00609299	     -0.00084730	    -11.52889514
      5.03000000	      7.20067851	      1.58354034	      7.81560071	     -1.40682183	      0.72489682	      0.27962305	     13.38004361	      1.29509250	      7.45411691	     -7.63154929	     -3.97049649	    -21.34288675	      0.00000000	    -18.60827192	      2.00600293	      2.27169167	    -34.29332508	      0.32300109	    -17.90968520	      0.00000000	    -30.16696340	      1.11229622	    -10.52507601
      5.04000000	      7.51247499	      0.59847058	      7.49648713	     -1.39335087	      0.72610939	      0.28093081	     13.52192669	      2.87787010	      7.35965773	    -10.20883487	     -2.79076420	    -21.36910087	      0.00000000	    -16.77765950	      0.83624514	      1.30900319	    -38.63935415	     -4.18588185	    -19.13124972	      0.00000000	    -30.29190332	      2.03109543	     -9.57820527
      5.05000000	      7.72011619	     -0.22351296	      7.26937119	     -1.38011290	      0.72744519	      0.28216719	     13.44465657	      4.24547647	      7.43095152	    -12.25427052	     -1.28481074	    -21.32063485	      0.00000000	    -14.63606041	     -0.21703632	      0.56421105	    -43.04426164	     -8.80733835	    -20.34099468	      0.00000000	    -30.31311025	      2.75140050	     -8.77492744
